<svg xmlns="http://www.w3.org/2000/svg" width="69.96" height="69.92" viewBox="0 0 69.96 69.92">
  <g id="icon_feedback" transform="translate(-297.603 -3205)">
    <ellipse id="Ellipse_3" data-name="Ellipse 3" cx="34.98" cy="34.96" rx="34.98" ry="34.96" transform="translate(297.603 3205)" fill="rgba(95,201,173,0.1)"/>
    <path id="Icon_awesome-user-alt" data-name="Icon awesome-user-alt" d="M14.4,16.194A8.1,8.1,0,1,0,6.3,8.1,8.1,8.1,0,0,0,14.4,16.194Zm7.2,1.8h-3.1a9.788,9.788,0,0,1-8.2,0H7.2a7.2,7.2,0,0,0-7.2,7.2v.9a2.7,2.7,0,0,0,2.7,2.7H26.091a2.7,2.7,0,0,0,2.7-2.7v-.9A7.2,7.2,0,0,0,21.593,17.994Z" transform="translate(318.188 3225.565)" fill="#5fc9ad"/>
  </g>
</svg>
