<svg xmlns="http://www.w3.org/2000/svg" width="63.795" height="63.795" viewBox="0 0 63.795 63.795">
  <g id="Icon_tracing" transform="translate(-804.624 -1560.624)">
    <circle id="Ellipse_2" data-name="Ellipse 2" cx="31.898" cy="31.898" r="31.898" transform="translate(804.624 1560.624)" fill="#5fc9ad"/>
    <path id="chart-pie-Filled_1_" d="M808.455,2853.991a13.924,13.924,0,0,0-10.922-10.922,3.477,3.477,0,0,0-4.158,3.405v7.517a4.163,4.163,0,0,0,4.158,4.158h7.517a3.476,3.476,0,0,0,3.4-4.158Zm-2.862,1.126a.7.7,0,0,1-.543.259h-7.517a1.386,1.386,0,0,1-1.386-1.386v-7.517a.707.707,0,0,1,.7-.7.659.659,0,0,1,.143.015,11.153,11.153,0,0,1,8.75,8.75A.691.691,0,0,1,805.594,2855.117Zm-.205,5.813a1.415,1.415,0,0,1,.136,1.32,12.369,12.369,0,0,1-11.539,7.771,13.014,13.014,0,0,1-1.33-.069,12.629,12.629,0,0,1-11.087-11.085A12.392,12.392,0,0,1,789.273,2846a1.419,1.419,0,0,1,1.321.135,1.381,1.381,0,0,1,.607,1.144v9.581a3.468,3.468,0,0,0,3.465,3.465h9.579A1.379,1.379,0,0,1,805.388,2860.93Z" transform="translate(41.509 -1263.99)" fill="#fff"/>
  </g>
</svg>
