<svg xmlns="http://www.w3.org/2000/svg" width="249.262" height="64.559" viewBox="0 0 249.262 64.559">
  <g id="logo_hb2" transform="translate(-2203.859 -4722)">
    <g id="Capa_x0020_1" transform="translate(2203.858 4722)">
      <g id="_3035324077216" transform="translate(0 0)">
        <g id="Grupo_10011" data-name="Grupo 10011" transform="translate(0)">
          <path id="Trazado_57" data-name="Trazado 57" d="M27.6,0C15.533.5,6.049,6.922,3.8,16.258c-.395,1.639.268,3.056,2.08,3.277,3.658.314,4.962-6.394,10.513-6.394s8.206,2.956,8.868,6.347A2.551,2.551,0,0,0,27.6,21.769a2.551,2.551,0,0,0,2.347-2.281c.662-3.391,3.4-6.226,8.948-6.226s6.775,6.587,10.433,6.273c1.812-.221,2.474-1.639,2.08-3.277C49.159,6.922,39.675.5,27.6,0Z" transform="translate(-1.219)" fill="#fff" fill-rule="evenodd"/>
          <path id="Trazado_58" data-name="Trazado 58" d="M20.685,64.04C16.2,63.565,11.348,59.519,6.426,52.63s-9.47-20.2-3.8-21.541S18.785,45.153,20.972,51.045,25.159,64.515,20.685,64.04Z" transform="translate(0.002 -10.27)" fill="#fff" fill-rule="evenodd"/>
          <path id="Trazado_59" data-name="Trazado 59" d="M45.652,64.04c4.481-.475,9.336-4.521,14.258-11.409s9.463-20.2,3.8-21.541S47.551,45.153,45.364,51.045,41.171,64.515,45.652,64.04Z" transform="translate(-14.231 -10.27)" fill="#fff" fill-rule="evenodd"/>
          <path id="Trazado_60" data-name="Trazado 60" d="M38.489,35.03a1.92,1.92,0,0,1,1.939,1.9c0,1.043-.95,5.023-2.02,5.023s-1.859-3.979-1.859-5.023a1.92,1.92,0,0,1,1.939-1.9Z" transform="translate(-12.105 -11.603)" fill="#fff" fill-rule="evenodd"/>
        </g>
        <path id="Trazado_61" data-name="Trazado 61" d="M96.465,62.265A3.035,3.035,0,0,1,93.1,58.909V35.775a3.047,3.047,0,0,1,3.365-3.365h10.589q4.629,0,7.12,2.06a6.683,6.683,0,0,1,2.5,5.416,6.571,6.571,0,0,1-1.287,4.069,7.618,7.618,0,0,1-3.973,2.539v.113a8.3,8.3,0,0,1,4.486,2.252,6.1,6.1,0,0,1,1.721,4.469,8.62,8.62,0,0,1-1.287,4.712,8.436,8.436,0,0,1-3.721,3.121,13.747,13.747,0,0,1-5.747,1.1Zm9.007-17.909a4.812,4.812,0,0,0,3.13-.835,3,3,0,0,0,.982-2.452,3.007,3.007,0,0,0-.965-2.408,4.789,4.789,0,0,0-3.147-.826h-4.938v6.52Zm.356,12.493q4.473,0,4.469-3.6a3.028,3.028,0,0,0-1.182-2.608,5.446,5.446,0,0,0-3.286-.869h-5.295v7.077Z" transform="translate(-26.193 -19.99)" fill="#fff"/>
        <path id="_1" data-name="1" d="M127.336,37.534a3.082,3.082,0,0,1,0-6.164h1.817a3.082,3.082,0,0,1,0,6.164Zm.913,24.917a3.726,3.726,0,0,1-3.678-3.678V43.941a3.678,3.678,0,0,1,7.355,0V58.773a3.726,3.726,0,0,1-3.677,3.678Z" transform="translate(-30.262 -19.854)" fill="#fff"/>
        <path id="_2" data-name="2" d="M141.028,63.77a3.726,3.726,0,0,1-3.678-3.678V44.982a3.444,3.444,0,0,1,3.4-3.4,3.328,3.328,0,0,1,2.434,1.008,3.274,3.274,0,0,1,1.008,2.391v.556a7.391,7.391,0,0,1,6.955-4.069q3.964,0,5.773,2.226a9.479,9.479,0,0,1,1.826,6.155V60.092a3.678,3.678,0,0,1-7.355,0V51a4.069,4.069,0,0,0-.956-3.086,3.1,3.1,0,0,0-2.173-.869,3.415,3.415,0,0,0-2.5,1.043c-.7.7-1.052,1.974-1.052,3.817v8.19a3.726,3.726,0,0,1-3.677,3.678Z" transform="translate(-31.973 -21.173)" fill="#fff"/>
        <path id="_3" data-name="3" d="M175.864,64.021a11.991,11.991,0,0,1-6.086-1.461,9.579,9.579,0,0,1-3.834-4.034,13.615,13.615,0,0,1,.035-11.7,9.841,9.841,0,0,1,3.921-4.034,13.591,13.591,0,0,1,12.258,0,9.506,9.506,0,0,1,3.869,4.034,12.668,12.668,0,0,1,1.3,5.816,12.379,12.379,0,0,1-1.365,5.868,9.788,9.788,0,0,1-3.947,4.051A12.351,12.351,0,0,1,175.864,64.021Zm.122-5.26a3.246,3.246,0,0,0,2.965-1.617,8.556,8.556,0,0,0,.991-4.469,8.577,8.577,0,0,0-.991-4.469,3.577,3.577,0,0,0-5.973-.017,8.534,8.534,0,0,0-.982,4.451,8.453,8.453,0,0,0,1.009,4.5A3.293,3.293,0,0,0,175.986,58.761Z" transform="translate(-35.537 -21.155)" fill="#fff"/>
        <path id="_4" data-name="4" d="M203.631,64.021q-5.542,0-8.329-3t-2.782-8.3a12.621,12.621,0,0,1,1.321-5.8,9.9,9.9,0,0,1,3.895-4.086,12.028,12.028,0,0,1,6.207-1.5,10.959,10.959,0,0,1,7.433,2.486,2.86,2.86,0,0,1,.73,1.13,4.043,4.043,0,0,1,.261,1.443,3.158,3.158,0,0,1-.948,2.3,3.262,3.262,0,0,1-3.956.5,3.5,3.5,0,0,1-1.191-1.174,2.737,2.737,0,0,0-2.608-1.417,3.181,3.181,0,0,0-2.765,1.5,8.179,8.179,0,0,0-1.026,4.582,8.094,8.094,0,0,0,1.043,4.608,3.219,3.219,0,0,0,2.747,1.478,3.035,3.035,0,0,0,2.773-1.617,3.627,3.627,0,0,1,1.2-1.3,3.063,3.063,0,0,1,1.687-.478,3.305,3.305,0,0,1,2.391.991,3.257,3.257,0,0,1,1.008,2.408,3.224,3.224,0,0,1-.948,2.373q-2.817,2.9-8.146,2.886Z" transform="translate(-39.179 -21.155)" fill="#fff"/>
        <path id="_5" data-name="5" d="M225.85,63.978q-4.03,0-5.816-2.269A9.693,9.693,0,0,1,218.26,55.6V45.278a3.678,3.678,0,0,1,7.355,0V54.45a4.327,4.327,0,0,0,.887,3.1,2.808,2.808,0,0,0,2.034.9,2.88,2.88,0,0,0,2.452-1.226,5.91,5.91,0,0,0,.913-3.564V45.278a3.678,3.678,0,0,1,7.355,0v15.1a3.293,3.293,0,0,1-1.008,2.4,3.343,3.343,0,0,1-2.434,1.008,3.444,3.444,0,0,1-3.4-3.408v-.826a8.309,8.309,0,0,1-2.513,3.2,6.474,6.474,0,0,1-4.051,1.226Z" transform="translate(-42.54 -21.19)" fill="#fff"/>
        <path id="_6" data-name="6" d="M250.538,62.4a3.742,3.742,0,0,1-3.677-3.678V34.678a3.678,3.678,0,0,1,7.355,0V58.725a3.726,3.726,0,0,1-3.677,3.678Z" transform="translate(-46.276 -19.806)" fill="#fff"/>
        <path id="_7" data-name="7" d="M265.405,63.943a8.784,8.784,0,0,1-3.695-.765,6.337,6.337,0,0,1-2.669-2.26,6.2,6.2,0,0,1-.991-3.538c0-2.791,1.061-4.66,3.165-5.59a19.722,19.722,0,0,1,7.99-1.408c.609,0,1.052.017,1.339.043l1.348.035a9.415,9.415,0,0,0-.2-2.147,2.131,2.131,0,0,0-.843-1.287,3.326,3.326,0,0,0-1.965-.478,3.161,3.161,0,0,0-2.686,1.148,2.921,2.921,0,0,1-2.408,1.348,3.053,3.053,0,0,1-2.234-.93,3.109,3.109,0,0,1-.93-2.278,3.223,3.223,0,0,1,.356-1.478,2.975,2.975,0,0,1,1.026-1.13,11.253,11.253,0,0,1,3.26-1.426,14.6,14.6,0,0,1,3.695-.469q4.9,0,7.459,2.1c1.7,1.4,2.547,3.686,2.547,6.877l-.035,5.616c0,.974.009,1.7.035,2.173l.043,2.217A3.341,3.341,0,0,1,278,62.717a3.415,3.415,0,0,1-4.686.2,3.388,3.388,0,0,1-1.148-2.1A6.945,6.945,0,0,1,269.3,63.23a9.676,9.676,0,0,1-3.895.713Zm2.417-4.7a3.738,3.738,0,0,0,3.026-1.3,4.967,4.967,0,0,0,1.087-3.278v-.322L269.6,54.3q-4.342,0-4.347,2.643a2.088,2.088,0,0,0,.73,1.687A2.772,2.772,0,0,0,267.822,59.239Z" transform="translate(-47.738 -21.155)" fill="#fff"/>
        <path id="_8" data-name="8" d="M289.7,63.787a3.726,3.726,0,0,1-3.677-3.678V45a3.444,3.444,0,0,1,3.4-3.4,3.314,3.314,0,0,1,2.434,1.008A3.274,3.274,0,0,1,292.862,45v.948h.157a8.633,8.633,0,0,1,1.208-2.113,4.972,4.972,0,0,1,1.443-1.321,3.736,3.736,0,0,1,4.147.652,3.356,3.356,0,0,1,.835,2.191,3.16,3.16,0,0,1-.852,2.173,2.855,2.855,0,0,1-2.234.956,4.364,4.364,0,0,0-1.678.348,3.825,3.825,0,0,0-1.443,1.069,5.733,5.733,0,0,0-1.069,3.721v6.486a3.726,3.726,0,0,1-3.678,3.678Z" transform="translate(-51.391 -21.19)" fill="#fff"/>
      </g>
    </g>
    <text id="Monitor" transform="translate(2381.999 4781.559)" fill="#fff" font-size="17" font-family="OpenSans-SemiBold, Open Sans" font-weight="600"><tspan x="0" y="0">Monitor</tspan></text>
  </g>
</svg>
